<svg xmlns="http://www.w3.org/2000/svg" viewBox="0 0 900 1200" width="900" height="1200" role="img">
<defs>
  <radialGradient id="sky" cx="50%" cy="18%" r="95%">
    <stop offset="0%" stop-color="#0d2949"/>
    <stop offset="42%" stop-color="#07182D"/>
    <stop offset="100%" stop-color="#05080F"/>
  </radialGradient>
  <radialGradient id="glow" cx="50%" cy="50%" r="50%">
    <stop offset="0%" stop-color="#02C8FF" stop-opacity="0.9"/>
    <stop offset="55%" stop-color="#02C8FF" stop-opacity="0.18"/>
    <stop offset="100%" stop-color="#02C8FF" stop-opacity="0"/>
  </radialGradient>
  <radialGradient id="gold" cx="50%" cy="50%" r="50%">
    <stop offset="0%" stop-color="#ffe6b0"/>
    <stop offset="55%" stop-color="#FFB74A"/>
    <stop offset="100%" stop-color="#a86a17"/>
  </radialGradient>
  <linearGradient id="hill" x1="0" y1="0" x2="0" y2="1">
    <stop offset="0%" stop-color="#0a1c33"/>
    <stop offset="100%" stop-color="#020509"/>
  </linearGradient>
  <linearGradient id="ridge" x1="0" y1="0" x2="0" y2="1">
    <stop offset="0%" stop-color="#0b2138"/>
    <stop offset="100%" stop-color="#040a14"/>
  </linearGradient>
  <linearGradient id="accentline" x1="0" y1="0" x2="1" y2="0">
    <stop offset="0%" stop-color="#02C8FF" stop-opacity="0"/>
    <stop offset="50%" stop-color="#02C8FF"/>
    <stop offset="100%" stop-color="#02C8FF" stop-opacity="0"/>
  </linearGradient>
  <radialGradient id="vig" cx="50%" cy="46%" r="72%">
    <stop offset="60%" stop-color="#000" stop-opacity="0"/>
    <stop offset="100%" stop-color="#000" stop-opacity="0.62"/>
  </radialGradient>
  <filter id="soft" x="-40%" y="-40%" width="180%" height="180%">
    <feGaussianBlur stdDeviation="7"/>
  </filter>
  <filter id="soft2" x="-60%" y="-60%" width="220%" height="220%">
    <feGaussianBlur stdDeviation="16"/>
  </filter>
</defs>
<rect width="900" height="1200" fill="url(#sky)"/><circle cx="397.7" cy="573.3" r="1.60" fill="#EAF6FF" opacity="0.21"/><circle cx="500.5" cy="470.5" r="1.41" fill="#EAF6FF" opacity="0.51"/><circle cx="316.0" cy="384.6" r="0.71" fill="#EAF6FF" opacity="0.50"/><circle cx="37.2" cy="435.4" r="2.09" fill="#EAF6FF" opacity="0.40"/><circle cx="797.7" cy="557.6" r="2.04" fill="#EAF6FF" opacity="0.60"/><circle cx="145.1" cy="37.3" r="1.33" fill="#EAF6FF" opacity="0.83"/><circle cx="168.7" cy="360.0" r="0.69" fill="#EAF6FF" opacity="0.69"/><circle cx="804.4" cy="637.7" r="0.84" fill="#EAF6FF" opacity="0.77"/><circle cx="786.9" cy="442.5" r="1.36" fill="#EAF6FF" opacity="0.30"/><circle cx="372.8" cy="35.0" r="0.42" fill="#EAF6FF" opacity="0.49"/><circle cx="404.9" cy="574.0" r="1.71" fill="#EAF6FF" opacity="0.29"/><circle cx="841.3" cy="55.4" r="1.71" fill="#EAF6FF" opacity="0.82"/><circle cx="519.2" cy="528.1" r="1.08" fill="#EAF6FF" opacity="0.19"/><circle cx="377.5" cy="13.8" r="1.43" fill="#EAF6FF" opacity="0.64"/><circle cx="207.5" cy="518.8" r="0.50" fill="#EAF6FF" opacity="0.68"/><circle cx="156.5" cy="524.8" r="1.56" fill="#EAF6FF" opacity="0.21"/><circle cx="653.2" cy="466.4" r="0.76" fill="#EAF6FF" opacity="0.77"/><circle cx="279.3" cy="383.3" r="0.43" fill="#EAF6FF" opacity="0.56"/><circle cx="557.6" cy="253.4" r="1.97" fill="#EAF6FF" opacity="0.84"/><circle cx="78.7" cy="196.0" r="0.72" fill="#EAF6FF" opacity="0.33"/><circle cx="439.3" cy="250.8" r="1.22" fill="#EAF6FF" opacity="0.31"/><circle cx="112.4" cy="521.9" r="1.91" fill="#EAF6FF" opacity="0.66"/><circle cx="521.8" cy="673.4" r="1.93" fill="#EAF6FF" opacity="0.50"/><circle cx="444.1" cy="283.6" r="1.01" fill="#EAF6FF" opacity="0.39"/><circle cx="307.6" cy="486.6" r="0.89" fill="#EAF6FF" opacity="0.75"/><circle cx="612.0" cy="487.8" r="1.58" fill="#EAF6FF" opacity="0.74"/><circle cx="740.4" cy="181.3" r="0.55" fill="#EAF6FF" opacity="0.37"/><circle cx="384.2" cy="296.5" r="0.44" fill="#EAF6FF" opacity="0.44"/><circle cx="854.9" cy="500.8" r="0.75" fill="#EAF6FF" opacity="0.23"/><circle cx="402.5" cy="567.9" r="1.40" fill="#EAF6FF" opacity="0.86"/><circle cx="613.9" cy="716.1" r="0.41" fill="#EAF6FF" opacity="0.29"/><circle cx="12.9" cy="467.5" r="1.52" fill="#EAF6FF" opacity="0.28"/><circle cx="32.8" cy="52.2" r="0.68" fill="#EAF6FF" opacity="0.34"/><circle cx="384.4" cy="108.6" r="0.97" fill="#EAF6FF" opacity="0.26"/><circle cx="891.5" cy="103.7" r="1.16" fill="#EAF6FF" opacity="0.19"/><circle cx="314.4" cy="583.8" r="0.82" fill="#EAF6FF" opacity="0.40"/><circle cx="234.6" cy="321.2" r="0.93" fill="#EAF6FF" opacity="0.84"/><circle cx="22.3" cy="665.5" r="0.60" fill="#EAF6FF" opacity="0.39"/><circle cx="858.0" cy="246.7" r="1.08" fill="#EAF6FF" opacity="0.38"/><circle cx="330.4" cy="257.0" r="0.69" fill="#EAF6FF" opacity="0.86"/><circle cx="83.5" cy="579.9" r="1.97" fill="#EAF6FF" opacity="0.56"/><circle cx="832.1" cy="513.3" r="1.19" fill="#EAF6FF" opacity="0.32"/><circle cx="21.2" cy="194.2" r="1.91" fill="#EAF6FF" opacity="0.40"/><circle cx="647.8" cy="632.5" r="0.50" fill="#EAF6FF" opacity="0.80"/><circle cx="619.2" cy="622.2" r="0.81" fill="#EAF6FF" opacity="0.50"/><circle cx="868.4" cy="676.1" r="0.56" fill="#EAF6FF" opacity="0.42"/><circle cx="700.1" cy="12.3" r="1.84" fill="#EAF6FF" opacity="0.67"/><circle cx="586.1" cy="340.3" r="1.59" fill="#EAF6FF" opacity="0.19"/><circle cx="686.2" cy="313.8" r="1.03" fill="#EAF6FF" opacity="0.58"/><circle cx="12.5" cy="157.0" r="1.79" fill="#EAF6FF" opacity="0.62"/><ellipse cx="450" cy="504" rx="360" ry="420" fill="url(#glow)" opacity="0.28"/><ellipse cx="450" cy="1032" rx="300" ry="60" fill="#040c16"/><ellipse cx="450" cy="1032" rx="300" ry="60" fill="none" stroke="#02C8FF" stroke-width="2" opacity="0.5"/><path d="M450 288 C268 367 224 842 210 1080 L690 1080 C676 842 632 367 450 288 Z" fill="#02070f"/><circle cx="450" cy="393" r="150" fill="#02070f"/><path d="M292 454 Q450 213 608 454 Q450 318 292 454 Z" fill="#02070f"/><path d="M290 557 C250 811 231 985 224 1080" fill="none" stroke="#02C8FF" stroke-width="3" opacity="0.6"/><rect x="360" y="480" width="180" height="130" rx="8" fill="#08182a" stroke="#02C8FF" stroke-width="3"/><line x1="402" y1="562" x2="440" y2="578" stroke="#02C8FF" stroke-width="1.4" opacity="0.35"/><line x1="440" y1="578" x2="444" y2="594" stroke="#02C8FF" stroke-width="1.4" opacity="0.35"/><line x1="440" y1="578" x2="414" y2="592" stroke="#02C8FF" stroke-width="1.4" opacity="0.35"/><line x1="440" y1="578" x2="417" y2="572" stroke="#02C8FF" stroke-width="1.4" opacity="0.35"/><line x1="440" y1="578" x2="406" y2="587" stroke="#02C8FF" stroke-width="1.4" opacity="0.35"/><line x1="494" y1="517" x2="473" y2="507" stroke="#02C8FF" stroke-width="1.4" opacity="0.35"/><line x1="444" y1="594" x2="414" y2="592" stroke="#02C8FF" stroke-width="1.4" opacity="0.35"/><line x1="444" y1="594" x2="417" y2="572" stroke="#02C8FF" stroke-width="1.4" opacity="0.35"/><line x1="444" y1="594" x2="406" y2="587" stroke="#02C8FF" stroke-width="1.4" opacity="0.35"/><line x1="473" y1="507" x2="482" y2="532" stroke="#02C8FF" stroke-width="1.4" opacity="0.35"/><line x1="473" y1="507" x2="479" y2="523" stroke="#02C8FF" stroke-width="1.4" opacity="0.35"/><line x1="414" y1="592" x2="417" y2="572" stroke="#02C8FF" stroke-width="1.4" opacity="0.35"/><line x1="414" y1="592" x2="401" y2="587" stroke="#02C8FF" stroke-width="1.4" opacity="0.35"/><line x1="399" y1="533" x2="417" y2="572" stroke="#02C8FF" stroke-width="1.4" opacity="0.35"/><line x1="417" y1="572" x2="406" y2="587" stroke="#02C8FF" stroke-width="1.4" opacity="0.35"/><line x1="417" y1="572" x2="401" y2="587" stroke="#02C8FF" stroke-width="1.4" opacity="0.35"/><line x1="482" y1="532" x2="460" y2="547" stroke="#02C8FF" stroke-width="1.4" opacity="0.35"/><circle cx="402" cy="562" r="9" fill="#02C8FF" opacity="0.85"/><circle cx="402" cy="562" r="21" fill="url(#glow)" opacity="0.3"/><circle cx="440" cy="578" r="9" fill="#02C8FF" opacity="0.85"/><circle cx="440" cy="578" r="21" fill="url(#glow)" opacity="0.3"/><circle cx="494" cy="517" r="8" fill="#02C8FF" opacity="0.85"/><circle cx="494" cy="517" r="20" fill="url(#glow)" opacity="0.3"/><circle cx="444" cy="594" r="5" fill="#02C8FF" opacity="0.85"/><circle cx="444" cy="594" r="11" fill="url(#glow)" opacity="0.3"/><circle cx="473" cy="507" r="8" fill="#02C8FF" opacity="0.85"/><circle cx="473" cy="507" r="20" fill="url(#glow)" opacity="0.3"/><circle cx="414" cy="592" r="7" fill="#02C8FF" opacity="0.85"/><circle cx="414" cy="592" r="16" fill="url(#glow)" opacity="0.3"/><circle cx="399" cy="533" r="7" fill="#02C8FF" opacity="0.85"/><circle cx="399" cy="533" r="17" fill="url(#glow)" opacity="0.3"/><circle cx="417" cy="572" r="6" fill="#02C8FF" opacity="0.85"/><circle cx="417" cy="572" r="14" fill="url(#glow)" opacity="0.3"/><circle cx="482" cy="532" r="9" fill="#02C8FF" opacity="0.85"/><circle cx="482" cy="532" r="21" fill="url(#glow)" opacity="0.3"/><circle cx="460" cy="547" r="6" fill="#02C8FF" opacity="0.85"/><circle cx="460" cy="547" r="14" fill="url(#glow)" opacity="0.3"/><circle cx="406" cy="587" r="5" fill="#02C8FF" opacity="0.85"/><circle cx="406" cy="587" r="12" fill="url(#glow)" opacity="0.3"/><circle cx="401" cy="587" r="7" fill="#02C8FF" opacity="0.85"/><circle cx="401" cy="587" r="17" fill="url(#glow)" opacity="0.3"/><circle cx="509" cy="581" r="4" fill="#02C8FF" opacity="0.85"/><circle cx="509" cy="581" r="10" fill="url(#glow)" opacity="0.3"/><circle cx="479" cy="523" r="8" fill="#02C8FF" opacity="0.85"/><circle cx="479" cy="523" r="20" fill="url(#glow)" opacity="0.3"/><circle cx="450" cy="1080" r="4" fill="none"/><path d="M410 1080 Q450 1048 490 1080 Q450 1112 410 1080 Z" fill="none" stroke="#02C8FF" stroke-width="6"/><circle cx="450.0" cy="1080.0" r="12" fill="#02C8FF"/><rect width="900" height="1200" fill="url(#vig)"/>
</svg>
