<svg xmlns="http://www.w3.org/2000/svg" viewBox="0 0 1600 900" width="1600" height="900" role="img">
<defs>
  <radialGradient id="sky" cx="50%" cy="18%" r="95%">
    <stop offset="0%" stop-color="#0d2949"/>
    <stop offset="42%" stop-color="#07182D"/>
    <stop offset="100%" stop-color="#05080F"/>
  </radialGradient>
  <radialGradient id="glow" cx="50%" cy="50%" r="50%">
    <stop offset="0%" stop-color="#FFB74A" stop-opacity="0.9"/>
    <stop offset="55%" stop-color="#FFB74A" stop-opacity="0.18"/>
    <stop offset="100%" stop-color="#FFB74A" stop-opacity="0"/>
  </radialGradient>
  <radialGradient id="gold" cx="50%" cy="50%" r="50%">
    <stop offset="0%" stop-color="#ffe6b0"/>
    <stop offset="55%" stop-color="#FFB74A"/>
    <stop offset="100%" stop-color="#a86a17"/>
  </radialGradient>
  <linearGradient id="hill" x1="0" y1="0" x2="0" y2="1">
    <stop offset="0%" stop-color="#0a1c33"/>
    <stop offset="100%" stop-color="#020509"/>
  </linearGradient>
  <linearGradient id="ridge" x1="0" y1="0" x2="0" y2="1">
    <stop offset="0%" stop-color="#0b2138"/>
    <stop offset="100%" stop-color="#040a14"/>
  </linearGradient>
  <linearGradient id="accentline" x1="0" y1="0" x2="1" y2="0">
    <stop offset="0%" stop-color="#FFB74A" stop-opacity="0"/>
    <stop offset="50%" stop-color="#FFB74A"/>
    <stop offset="100%" stop-color="#FFB74A" stop-opacity="0"/>
  </linearGradient>
  <radialGradient id="vig" cx="50%" cy="46%" r="72%">
    <stop offset="60%" stop-color="#000" stop-opacity="0"/>
    <stop offset="100%" stop-color="#000" stop-opacity="0.62"/>
  </radialGradient>
  <filter id="soft" x="-40%" y="-40%" width="180%" height="180%">
    <feGaussianBlur stdDeviation="7"/>
  </filter>
  <filter id="soft2" x="-60%" y="-60%" width="220%" height="220%">
    <feGaussianBlur stdDeviation="16"/>
  </filter>
</defs>
<rect width="1600" height="900" fill="url(#sky)"/><circle cx="1044.0" cy="233.5" r="0.99" fill="#EAF6FF" opacity="0.25"/><circle cx="570.0" cy="442.7" r="1.81" fill="#EAF6FF" opacity="0.49"/><circle cx="1188.7" cy="492.8" r="0.71" fill="#EAF6FF" opacity="0.18"/><circle cx="515.7" cy="43.2" r="1.05" fill="#EAF6FF" opacity="0.85"/><circle cx="871.0" cy="64.6" r="1.75" fill="#EAF6FF" opacity="0.29"/><circle cx="1276.1" cy="104.9" r="1.83" fill="#EAF6FF" opacity="0.37"/><circle cx="33.2" cy="489.0" r="0.85" fill="#EAF6FF" opacity="0.39"/><circle cx="440.6" cy="557.9" r="0.55" fill="#EAF6FF" opacity="0.68"/><circle cx="191.5" cy="272.6" r="1.91" fill="#EAF6FF" opacity="0.75"/><circle cx="207.3" cy="573.7" r="1.04" fill="#EAF6FF" opacity="0.61"/><circle cx="655.2" cy="30.2" r="0.50" fill="#EAF6FF" opacity="0.19"/><circle cx="700.9" cy="302.5" r="1.86" fill="#EAF6FF" opacity="0.46"/><circle cx="144.8" cy="206.9" r="1.23" fill="#EAF6FF" opacity="0.40"/><circle cx="292.6" cy="86.7" r="1.27" fill="#EAF6FF" opacity="0.67"/><circle cx="611.2" cy="559.2" r="1.77" fill="#EAF6FF" opacity="0.27"/><circle cx="1317.8" cy="210.2" r="1.14" fill="#EAF6FF" opacity="0.40"/><circle cx="454.3" cy="171.8" r="1.36" fill="#EAF6FF" opacity="0.75"/><circle cx="395.5" cy="570.9" r="1.28" fill="#EAF6FF" opacity="0.81"/><circle cx="1141.9" cy="457.8" r="1.34" fill="#EAF6FF" opacity="0.46"/><circle cx="146.8" cy="276.3" r="1.19" fill="#EAF6FF" opacity="0.73"/><circle cx="28.1" cy="126.3" r="1.37" fill="#EAF6FF" opacity="0.31"/><circle cx="713.8" cy="223.2" r="0.80" fill="#EAF6FF" opacity="0.50"/><circle cx="1372.5" cy="477.9" r="1.24" fill="#EAF6FF" opacity="0.36"/><circle cx="1478.1" cy="92.9" r="1.81" fill="#EAF6FF" opacity="0.20"/><circle cx="758.5" cy="219.2" r="1.75" fill="#EAF6FF" opacity="0.80"/><circle cx="179.7" cy="165.2" r="1.17" fill="#EAF6FF" opacity="0.54"/><circle cx="512.5" cy="605.2" r="1.01" fill="#EAF6FF" opacity="0.68"/><circle cx="635.8" cy="608.9" r="0.49" fill="#EAF6FF" opacity="0.20"/><circle cx="122.3" cy="101.1" r="1.68" fill="#EAF6FF" opacity="0.81"/><circle cx="259.6" cy="82.9" r="0.85" fill="#EAF6FF" opacity="0.78"/><circle cx="55.8" cy="595.0" r="1.75" fill="#EAF6FF" opacity="0.28"/><circle cx="578.8" cy="381.4" r="1.53" fill="#EAF6FF" opacity="0.44"/><circle cx="1380.4" cy="71.5" r="1.36" fill="#EAF6FF" opacity="0.55"/><circle cx="754.6" cy="598.3" r="1.20" fill="#EAF6FF" opacity="0.79"/><circle cx="1180.7" cy="507.1" r="1.65" fill="#EAF6FF" opacity="0.37"/><circle cx="1300.2" cy="395.2" r="1.36" fill="#EAF6FF" opacity="0.33"/><circle cx="1378.3" cy="390.5" r="0.95" fill="#EAF6FF" opacity="0.41"/><circle cx="399.9" cy="132.9" r="1.98" fill="#EAF6FF" opacity="0.47"/><circle cx="549.9" cy="17.6" r="1.73" fill="#EAF6FF" opacity="0.84"/><circle cx="427.5" cy="314.3" r="1.12" fill="#EAF6FF" opacity="0.22"/><circle cx="746.0" cy="590.3" r="1.21" fill="#EAF6FF" opacity="0.85"/><circle cx="665.3" cy="338.9" r="2.02" fill="#EAF6FF" opacity="0.63"/><circle cx="510.2" cy="178.7" r="1.35" fill="#EAF6FF" opacity="0.24"/><circle cx="222.6" cy="241.2" r="0.45" fill="#EAF6FF" opacity="0.66"/><circle cx="1297.5" cy="10.7" r="0.71" fill="#EAF6FF" opacity="0.20"/><circle cx="1554.7" cy="515.3" r="1.53" fill="#EAF6FF" opacity="0.81"/><circle cx="93.2" cy="281.6" r="0.59" fill="#EAF6FF" opacity="0.54"/><circle cx="181.6" cy="28.7" r="1.57" fill="#EAF6FF" opacity="0.19"/><circle cx="231.6" cy="170.4" r="1.60" fill="#EAF6FF" opacity="0.23"/><circle cx="606.6" cy="590.6" r="1.06" fill="#EAF6FF" opacity="0.64"/><circle cx="414.6" cy="228.3" r="0.87" fill="#EAF6FF" opacity="0.79"/><circle cx="835.2" cy="427.5" r="1.38" fill="#EAF6FF" opacity="0.17"/><circle cx="331.0" cy="406.6" r="1.76" fill="#EAF6FF" opacity="0.39"/><circle cx="1493.8" cy="435.0" r="2.10" fill="#EAF6FF" opacity="0.38"/><circle cx="474.6" cy="455.5" r="0.48" fill="#EAF6FF" opacity="0.50"/><circle cx="1148.4" cy="561.0" r="0.62" fill="#EAF6FF" opacity="0.46"/><circle cx="963.3" cy="246.9" r="0.48" fill="#EAF6FF" opacity="0.56"/><circle cx="223.5" cy="395.7" r="0.98" fill="#EAF6FF" opacity="0.19"/><circle cx="957.7" cy="21.2" r="2.02" fill="#EAF6FF" opacity="0.26"/><circle cx="720.6" cy="297.8" r="1.12" fill="#EAF6FF" opacity="0.78"/><circle cx="280.0" cy="556.2" r="0.85" fill="#EAF6FF" opacity="0.28"/><circle cx="137.2" cy="608.0" r="1.34" fill="#EAF6FF" opacity="0.71"/><circle cx="32.7" cy="201.0" r="1.14" fill="#EAF6FF" opacity="0.24"/><circle cx="385.5" cy="174.2" r="1.30" fill="#EAF6FF" opacity="0.58"/><circle cx="617.3" cy="400.3" r="1.87" fill="#EAF6FF" opacity="0.70"/><circle cx="1310.9" cy="307.5" r="1.22" fill="#EAF6FF" opacity="0.19"/><circle cx="353.0" cy="127.2" r="0.79" fill="#EAF6FF" opacity="0.85"/><circle cx="1211.1" cy="94.6" r="1.92" fill="#EAF6FF" opacity="0.39"/><circle cx="1095.6" cy="30.0" r="0.80" fill="#EAF6FF" opacity="0.37"/><circle cx="1154.8" cy="201.0" r="0.46" fill="#EAF6FF" opacity="0.69"/><circle cx="56.1" cy="384.5" r="1.63" fill="#EAF6FF" opacity="0.49"/><circle cx="300.1" cy="478.2" r="1.65" fill="#EAF6FF" opacity="0.28"/><circle cx="1419.7" cy="191.8" r="0.61" fill="#EAF6FF" opacity="0.70"/><circle cx="1413.7" cy="554.2" r="1.37" fill="#EAF6FF" opacity="0.30"/><circle cx="1364.2" cy="485.3" r="0.99" fill="#EAF6FF" opacity="0.39"/><circle cx="989.3" cy="347.2" r="1.07" fill="#EAF6FF" opacity="0.52"/><circle cx="879.0" cy="215.8" r="2.08" fill="#EAF6FF" opacity="0.29"/><circle cx="766.5" cy="503.4" r="0.84" fill="#EAF6FF" opacity="0.76"/><circle cx="1583.6" cy="17.3" r="2.01" fill="#EAF6FF" opacity="0.36"/><circle cx="649.8" cy="309.8" r="1.61" fill="#EAF6FF" opacity="0.80"/><circle cx="546.8" cy="387.3" r="1.07" fill="#EAF6FF" opacity="0.43"/><circle cx="226.8" cy="426.8" r="1.18" fill="#EAF6FF" opacity="0.34"/><circle cx="105.1" cy="403.2" r="0.65" fill="#EAF6FF" opacity="0.72"/><circle cx="887.4" cy="35.9" r="1.11" fill="#EAF6FF" opacity="0.79"/><circle cx="681.3" cy="34.0" r="1.04" fill="#EAF6FF" opacity="0.84"/><circle cx="542.3" cy="31.8" r="0.60" fill="#EAF6FF" opacity="0.80"/><circle cx="603.8" cy="539.7" r="1.65" fill="#EAF6FF" opacity="0.18"/><circle cx="142.0" cy="16.7" r="1.25" fill="#EAF6FF" opacity="0.78"/><circle cx="1324.8" cy="509.8" r="1.80" fill="#EAF6FF" opacity="0.25"/><circle cx="1195.2" cy="115.2" r="0.58" fill="#EAF6FF" opacity="0.28"/><circle cx="1290" cy="190" r="216" fill="url(#glow)" opacity="0.7"/><circle cx="1290" cy="190" r="90" fill="url(#gold)"/><circle cx="1265" cy="170" r="65" fill="#07182D" opacity="0.28"/><rect x="0" y="540" width="1600" height="360" fill="url(#glow)" opacity="0.10"/><rect x="0" y="560" width="1600" height="340" fill="url(#hill)"/><rect x="557.0" y="357.5" width="486.00000000000006" height="202.5" fill="#06121f"/><rect x="557" y="329" width="40" height="28" fill="#06121f"/><rect x="638" y="329" width="40" height="28" fill="#06121f"/><rect x="719" y="329" width="40" height="28" fill="#06121f"/><rect x="800" y="329" width="40" height="28" fill="#06121f"/><rect x="881" y="329" width="40" height="28" fill="#06121f"/><rect x="962" y="329" width="40" height="28" fill="#06121f"/><path d="M757 560 L757 474 A43 43 0 0 1 843 474 L843 560 Z" fill="#020509"/><path d="M771 560 L771 469 A29 29 0 0 1 829 469 L829 560 Z" fill="#FFB74A" opacity="0.55"/><rect x="504" y="209" width="105" height="351" fill="#081726"/><rect x="504" y="188" width="21" height="21" fill="#081726"/><rect x="546" y="188" width="21" height="21" fill="#081726"/><rect x="589" y="188" width="21" height="21" fill="#081726"/><rect x="542" y="342" width="29" height="77" rx="15" fill="#FFB74A" opacity="0.85"/><rect x="542" y="342" width="29" height="77" rx="15" fill="url(#glow)" opacity="0.4"/><rect x="990" y="209" width="105" height="351" fill="#081726"/><rect x="990" y="188" width="21" height="21" fill="#081726"/><rect x="1032" y="188" width="21" height="21" fill="#081726"/><rect x="1075" y="188" width="21" height="21" fill="#081726"/><rect x="1028" y="342" width="29" height="77" rx="15" fill="#FFB74A" opacity="0.85"/><rect x="1028" y="342" width="29" height="77" rx="15" fill="url(#glow)" opacity="0.4"/><rect x="735" y="155" width="130" height="202" fill="#081726"/><rect x="735" y="129" width="26" height="26" fill="#081726"/><rect x="787" y="129" width="26" height="26" fill="#081726"/><rect x="839" y="129" width="26" height="26" fill="#081726"/><rect x="782" y="232" width="36" height="45" rx="18" fill="#FFB74A" opacity="0.85"/><rect x="782" y="232" width="36" height="45" rx="18" fill="url(#glow)" opacity="0.4"/><path d="M0 640 Q400 600 800 640 T1600 640 V900 H0 Z" fill="#04101d"/><path d="M0 648 Q400 612 800 648 T1600 648" fill="none" stroke="#02C8FF" stroke-width="2" opacity="0.3"/>
<rect width="1600" height="900" fill="url(#vig)"/>
</svg>
