<svg xmlns="http://www.w3.org/2000/svg" viewBox="0 0 1600 900" width="1600" height="900" role="img">
<defs>
  <radialGradient id="sky" cx="50%" cy="18%" r="95%">
    <stop offset="0%" stop-color="#0d2949"/>
    <stop offset="42%" stop-color="#07182D"/>
    <stop offset="100%" stop-color="#05080F"/>
  </radialGradient>
  <radialGradient id="glow" cx="50%" cy="50%" r="50%">
    <stop offset="0%" stop-color="#C8324B" stop-opacity="0.9"/>
    <stop offset="55%" stop-color="#C8324B" stop-opacity="0.18"/>
    <stop offset="100%" stop-color="#C8324B" stop-opacity="0"/>
  </radialGradient>
  <radialGradient id="gold" cx="50%" cy="50%" r="50%">
    <stop offset="0%" stop-color="#ffe6b0"/>
    <stop offset="55%" stop-color="#FFB74A"/>
    <stop offset="100%" stop-color="#a86a17"/>
  </radialGradient>
  <linearGradient id="hill" x1="0" y1="0" x2="0" y2="1">
    <stop offset="0%" stop-color="#0a1c33"/>
    <stop offset="100%" stop-color="#020509"/>
  </linearGradient>
  <linearGradient id="ridge" x1="0" y1="0" x2="0" y2="1">
    <stop offset="0%" stop-color="#0b2138"/>
    <stop offset="100%" stop-color="#040a14"/>
  </linearGradient>
  <linearGradient id="accentline" x1="0" y1="0" x2="1" y2="0">
    <stop offset="0%" stop-color="#C8324B" stop-opacity="0"/>
    <stop offset="50%" stop-color="#C8324B"/>
    <stop offset="100%" stop-color="#C8324B" stop-opacity="0"/>
  </linearGradient>
  <radialGradient id="vig" cx="50%" cy="46%" r="72%">
    <stop offset="60%" stop-color="#000" stop-opacity="0"/>
    <stop offset="100%" stop-color="#000" stop-opacity="0.62"/>
  </radialGradient>
  <filter id="soft" x="-40%" y="-40%" width="180%" height="180%">
    <feGaussianBlur stdDeviation="7"/>
  </filter>
  <filter id="soft2" x="-60%" y="-60%" width="220%" height="220%">
    <feGaussianBlur stdDeviation="16"/>
  </filter>
</defs>
<rect width="1600" height="900" fill="url(#sky)"/><circle cx="153.9" cy="24.7" r="1.20" fill="#EAF6FF" opacity="0.61"/><circle cx="422.0" cy="421.4" r="1.47" fill="#EAF6FF" opacity="0.46"/><circle cx="1179.5" cy="356.8" r="1.92" fill="#EAF6FF" opacity="0.22"/><circle cx="1066.4" cy="195.2" r="0.84" fill="#EAF6FF" opacity="0.76"/><circle cx="698.0" cy="106.7" r="1.23" fill="#EAF6FF" opacity="0.80"/><circle cx="185.9" cy="20.5" r="0.96" fill="#EAF6FF" opacity="0.47"/><circle cx="1243.2" cy="380.0" r="1.49" fill="#EAF6FF" opacity="0.51"/><circle cx="24.1" cy="315.6" r="1.07" fill="#EAF6FF" opacity="0.54"/><circle cx="847.8" cy="558.3" r="0.90" fill="#EAF6FF" opacity="0.62"/><circle cx="157.5" cy="366.8" r="2.00" fill="#EAF6FF" opacity="0.46"/><circle cx="1262.4" cy="75.8" r="0.91" fill="#EAF6FF" opacity="0.43"/><circle cx="1215.2" cy="372.5" r="1.15" fill="#EAF6FF" opacity="0.20"/><circle cx="773.9" cy="119.1" r="0.70" fill="#EAF6FF" opacity="0.54"/><circle cx="1197.0" cy="350.4" r="1.71" fill="#EAF6FF" opacity="0.58"/><circle cx="424.6" cy="354.0" r="0.70" fill="#EAF6FF" opacity="0.34"/><circle cx="392.4" cy="192.7" r="0.41" fill="#EAF6FF" opacity="0.75"/><circle cx="1230.9" cy="472.8" r="1.74" fill="#EAF6FF" opacity="0.42"/><circle cx="499.1" cy="256.3" r="1.39" fill="#EAF6FF" opacity="0.53"/><circle cx="401.9" cy="440.2" r="1.41" fill="#EAF6FF" opacity="0.63"/><circle cx="1142.3" cy="41.1" r="1.83" fill="#EAF6FF" opacity="0.53"/><circle cx="958.2" cy="50.9" r="1.24" fill="#EAF6FF" opacity="0.82"/><circle cx="192.8" cy="463.6" r="2.03" fill="#EAF6FF" opacity="0.82"/><circle cx="1150.6" cy="247.2" r="0.93" fill="#EAF6FF" opacity="0.22"/><circle cx="1086.3" cy="545.3" r="0.75" fill="#EAF6FF" opacity="0.83"/><circle cx="479.2" cy="75.5" r="1.71" fill="#EAF6FF" opacity="0.77"/><circle cx="1541.7" cy="145.7" r="1.53" fill="#EAF6FF" opacity="0.65"/><circle cx="1511.6" cy="298.7" r="1.86" fill="#EAF6FF" opacity="0.70"/><circle cx="480.0" cy="170.2" r="0.79" fill="#EAF6FF" opacity="0.81"/><circle cx="1102.1" cy="199.6" r="1.34" fill="#EAF6FF" opacity="0.54"/><circle cx="743.4" cy="253.4" r="0.47" fill="#EAF6FF" opacity="0.56"/><circle cx="1410.0" cy="428.6" r="1.98" fill="#EAF6FF" opacity="0.64"/><circle cx="1213.4" cy="38.1" r="0.90" fill="#EAF6FF" opacity="0.28"/><circle cx="719.0" cy="266.1" r="1.49" fill="#EAF6FF" opacity="0.80"/><circle cx="730.1" cy="378.2" r="1.04" fill="#EAF6FF" opacity="0.29"/><circle cx="855.3" cy="316.9" r="1.70" fill="#EAF6FF" opacity="0.37"/><circle cx="1010.8" cy="179.9" r="1.14" fill="#EAF6FF" opacity="0.27"/><circle cx="806.7" cy="231.6" r="0.49" fill="#EAF6FF" opacity="0.48"/><circle cx="568.5" cy="512.1" r="0.86" fill="#EAF6FF" opacity="0.73"/><circle cx="541.4" cy="24.5" r="1.27" fill="#EAF6FF" opacity="0.52"/><circle cx="430.9" cy="70.7" r="1.53" fill="#EAF6FF" opacity="0.85"/><circle cx="626.4" cy="89.6" r="1.08" fill="#EAF6FF" opacity="0.85"/><circle cx="859.3" cy="359.3" r="0.43" fill="#EAF6FF" opacity="0.42"/><circle cx="846.6" cy="529.4" r="1.41" fill="#EAF6FF" opacity="0.52"/><circle cx="267.0" cy="389.2" r="1.09" fill="#EAF6FF" opacity="0.37"/><circle cx="1023.4" cy="406.2" r="0.89" fill="#EAF6FF" opacity="0.54"/><circle cx="1138.1" cy="483.1" r="2.08" fill="#EAF6FF" opacity="0.29"/><circle cx="833.5" cy="589.7" r="0.60" fill="#EAF6FF" opacity="0.65"/><circle cx="546.4" cy="493.5" r="1.78" fill="#EAF6FF" opacity="0.23"/><circle cx="227.5" cy="407.5" r="1.50" fill="#EAF6FF" opacity="0.37"/><circle cx="474.3" cy="393.8" r="2.06" fill="#EAF6FF" opacity="0.81"/><rect x="0" y="540" width="1600" height="360" fill="url(#glow)" opacity="0.10"/><rect x="120" y="150" width="1360" height="640" rx="18" fill="#040e18" opacity="0.6" stroke="#02C8FF" stroke-width="1.5"/><line x1="411" y1="516" x2="497" y2="597" stroke="#02C8FF" stroke-width="1.4" opacity="0.35"/><line x1="411" y1="516" x2="654" y2="344" stroke="#02C8FF" stroke-width="1.4" opacity="0.35"/><line x1="691" y1="250" x2="764" y2="270" stroke="#02C8FF" stroke-width="1.4" opacity="0.35"/><line x1="691" y1="250" x2="654" y2="344" stroke="#02C8FF" stroke-width="1.4" opacity="0.35"/><line x1="691" y1="250" x2="605" y2="426" stroke="#02C8FF" stroke-width="1.4" opacity="0.35"/><line x1="1026" y1="683" x2="757" y2="498" stroke="#02C8FF" stroke-width="1.4" opacity="0.35"/><line x1="764" y1="270" x2="654" y2="344" stroke="#02C8FF" stroke-width="1.4" opacity="0.35"/><line x1="764" y1="270" x2="605" y2="426" stroke="#02C8FF" stroke-width="1.4" opacity="0.35"/><line x1="886" y1="474" x2="654" y2="344" stroke="#02C8FF" stroke-width="1.4" opacity="0.35"/><line x1="886" y1="474" x2="906" y2="418" stroke="#02C8FF" stroke-width="1.4" opacity="0.35"/><line x1="886" y1="474" x2="605" y2="426" stroke="#02C8FF" stroke-width="1.4" opacity="0.35"/><line x1="206" y1="220" x2="206" y2="437" stroke="#02C8FF" stroke-width="1.4" opacity="0.35"/><line x1="206" y1="220" x2="181" y2="428" stroke="#02C8FF" stroke-width="1.4" opacity="0.35"/><line x1="497" y1="597" x2="757" y2="498" stroke="#02C8FF" stroke-width="1.4" opacity="0.35"/><line x1="654" y1="344" x2="906" y2="418" stroke="#02C8FF" stroke-width="1.4" opacity="0.35"/><line x1="654" y1="344" x2="757" y2="498" stroke="#02C8FF" stroke-width="1.4" opacity="0.35"/><line x1="654" y1="344" x2="605" y2="426" stroke="#02C8FF" stroke-width="1.4" opacity="0.35"/><line x1="906" y1="418" x2="757" y2="498" stroke="#02C8FF" stroke-width="1.4" opacity="0.35"/><line x1="906" y1="418" x2="605" y2="426" stroke="#02C8FF" stroke-width="1.4" opacity="0.35"/><line x1="757" y1="498" x2="605" y2="426" stroke="#02C8FF" stroke-width="1.4" opacity="0.35"/><circle cx="411" cy="516" r="7" fill="#02C8FF" opacity="0.85"/><circle cx="411" cy="516" r="17" fill="url(#glow)" opacity="0.3"/><circle cx="691" cy="250" r="8" fill="#02C8FF" opacity="0.85"/><circle cx="691" cy="250" r="20" fill="url(#glow)" opacity="0.3"/><circle cx="1026" cy="683" r="6" fill="#02C8FF" opacity="0.85"/><circle cx="1026" cy="683" r="13" fill="url(#glow)" opacity="0.3"/><circle cx="764" cy="270" r="7" fill="#02C8FF" opacity="0.85"/><circle cx="764" cy="270" r="16" fill="url(#glow)" opacity="0.3"/><circle cx="1351" cy="665" r="7" fill="#02C8FF" opacity="0.85"/><circle cx="1351" cy="665" r="17" fill="url(#glow)" opacity="0.3"/><circle cx="886" cy="474" r="8" fill="#02C8FF" opacity="0.85"/><circle cx="886" cy="474" r="18" fill="url(#glow)" opacity="0.3"/><circle cx="206" cy="220" r="6" fill="#02C8FF" opacity="0.85"/><circle cx="206" cy="220" r="14" fill="url(#glow)" opacity="0.3"/><circle cx="497" cy="597" r="8" fill="#02C8FF" opacity="0.85"/><circle cx="497" cy="597" r="20" fill="url(#glow)" opacity="0.3"/><circle cx="206" cy="437" r="9" fill="#02C8FF" opacity="0.85"/><circle cx="206" cy="437" r="21" fill="url(#glow)" opacity="0.3"/><circle cx="654" cy="344" r="5" fill="#02C8FF" opacity="0.85"/><circle cx="654" cy="344" r="13" fill="url(#glow)" opacity="0.3"/><circle cx="906" cy="418" r="9" fill="#02C8FF" opacity="0.85"/><circle cx="906" cy="418" r="21" fill="url(#glow)" opacity="0.3"/><circle cx="181" cy="428" r="6" fill="#02C8FF" opacity="0.85"/><circle cx="181" cy="428" r="13" fill="url(#glow)" opacity="0.3"/><circle cx="757" cy="498" r="8" fill="#02C8FF" opacity="0.85"/><circle cx="757" cy="498" r="20" fill="url(#glow)" opacity="0.3"/><circle cx="605" cy="426" r="9" fill="#02C8FF" opacity="0.85"/><circle cx="605" cy="426" r="21" fill="url(#glow)" opacity="0.3"/><line x1="764" y1="270" x2="654" y2="344" stroke="#C8324B" stroke-width="3" stroke-dasharray="8 6"/><circle cx="654" cy="344" r="12" fill="none" stroke="#C8324B" stroke-width="3"/><circle cx="654" cy="344" r="20" fill="url(#glow)" opacity="0.5"/><text x="150" y="200" font-family="monospace" font-size="24" fill="#C8324B" opacity="0.8">ANOMALY // granary&#8594;armory</text>
<rect width="1600" height="900" fill="url(#vig)"/>
</svg>
